<svg version="1.1" viewBox="0.0 0.0 960.0 720.0" fill="none" stroke="none" stroke-linecap="square" stroke-miterlimit="10" xmlns:xlink="http://www.w3.org/1999/xlink" xmlns="http://www.w3.org/2000/svg"><clipPath id="p.0"><path d="m0 0l960.0 0l0 720.0l-960.0 0l0 -720.0z" clip-rule="nonzero"/></clipPath><g clip-path="url(#p.0)"><path fill="#000000" fill-opacity="0.0" d="m0 0l960.0 0l0 720.0l-960.0 0z" fill-rule="evenodd"/><defs><linearGradient id="p.1" gradientUnits="userSpaceOnUse" gradientTransform="matrix(27.258473176607435 0.0 0.0 27.258473176607435 0.0 0.0)" spreadMethod="pad" x1="36.88400184005761" y1="2.257702315345467" x2="17.60952842654623" y2="-17.017126725444243"><stop offset="0.0" stop-color="#3d85c6"/><stop offset="1.0" stop-color="#a64d79"/></linearGradient></defs><path fill="url(#p.1)" d="m3.1496063E-6 31.273272l0 0c0 -8.358366 6.7757945 -15.134161 15.134161 -15.134161l929.7317 0c4.013855 0 7.8632812 1.5944881 10.701477 4.4326935c2.8381958 2.8382053 4.432678 6.687639 4.432678 10.7014675l0 60.53483c0 8.358368 -6.775818 15.134163 -15.134155 15.134163l-929.7317 0l0 0c-8.358366 0 -15.134161 -6.775795 -15.134161 -15.134163z" fill-rule="evenodd"/><defs><linearGradient id="p.2" gradientUnits="userSpaceOnUse" gradientTransform="matrix(27.2584735090622 0.0 0.0 27.2584735090622 0.0 0.0)" spreadMethod="pad" x1="36.88400139020622" y1="13.206934023682162" x2="17.60952821177369" y2="-6.067895722339739"><stop offset="0.0" stop-color="#3d85c6"/><stop offset="1.0" stop-color="#a64d79"/></linearGradient></defs><path fill="url(#p.2)" d="m3.1496063E-6 329.73257l0 0c0 -8.358337 6.7757945 -15.134155 15.134161 -15.134155l929.7317 0c4.013855 0 7.8632812 1.5944824 10.701477 4.4327087c2.8381958 2.8381958 4.432678 6.687622 4.432678 10.701447l0 60.53485c0 8.358368 -6.775818 15.134155 -15.134155 15.134155l-929.7317 0l0 0c-8.358366 0 -15.134161 -6.7757874 -15.134161 -15.134155z" fill-rule="evenodd"/><defs><linearGradient id="p.3" gradientUnits="userSpaceOnUse" gradientTransform="matrix(27.25847324309839 0.0 0.0 27.25847324309839 0.0 0.0)" spreadMethod="pad" x1="36.88400175008733" y1="24.156165054933542" x2="17.60952838359172" y2="4.881335873097392"><stop offset="0.0" stop-color="#3d85c6"/><stop offset="1.0" stop-color="#a64d79"/></linearGradient></defs><path fill="url(#p.3)" d="m3.1496063E-6 628.1919l0 0c0 -8.358337 6.7757945 -15.134155 15.134161 -15.134155l929.7317 0c4.013855 0 7.8632812 1.5944824 10.701477 4.432678c2.8381958 2.8382568 4.432678 6.687683 4.432678 10.701477l0 60.53485c0 8.358337 -6.775818 15.134155 -15.134155 15.134155l-929.7317 0l0 0c-8.358366 0 -15.134161 -6.775818 -15.134161 -15.134155z" fill-rule="evenodd"/></g></svg>